<?xml version="1.0" standalone="no"?>
<!DOCTYPE svg PUBLIC "-//W3C//DTD SVG 20010904//EN"
 "http://www.w3.org/TR/2001/REC-SVG-20010904/DTD/svg10.dtd">
<svg version="1.0" xmlns="http://www.w3.org/2000/svg"
 width="1890.000000pt" height="1890.000000pt" viewBox="0 0 1890.000000 1890.000000"
 preserveAspectRatio="xMidYMid meet">

<g transform="translate(0.000000,1890.000000) scale(0.100000,-0.100000)"
fill="#000000" stroke="none">
<path d="M0 9450 l0 -9450 9450 0 9450 0 0 9450 0 9450 -9450 0 -9450 0 0
-9450z m18688 4978 l2 -4238 -779 0 c-832 0 -833 0 -976 50 -277 98 -494 352
-554 648 -23 112 -9 508 24 666 116 562 395 865 893 968 93 19 137 22 337 22
191 0 254 -4 370 -23 209 -34 254 -36 292 -12 75 47 88 135 32 218 -98 144
-306 365 -459 487 -280 225 -610 390 -950 477 -321 82 -685 85 -1085 10 -284
-54 -707 -224 -1033 -415 -593 -347 -1246 -918 -1772 -1549 -233 -280 -428
-550 -699 -972 -144 -223 -389 -417 -636 -504 -189 -67 -467 -92 -632 -56
-350 75 -611 337 -682 683 -23 112 -9 508 24 666 116 562 395 865 893 968 93
19 137 22 337 22 191 0 254 -4 370 -23 209 -34 254 -36 292 -12 75 47 88 135
32 218 -98 144 -306 365 -459 487 -280 225 -610 390 -950 477 -321 82 -685 85
-1085 10 -284 -54 -707 -224 -1033 -415 -593 -347 -1246 -918 -1772 -1549
-233 -280 -428 -550 -699 -972 -144 -223 -389 -417 -636 -504 -245 -87 -518
-95 -729 -22 -275 96 -495 353 -555 649 -23 112 -9 508 24 666 116 562 395
865 893 968 93 19 137 22 337 22 191 0 254 -4 370 -23 205 -34 246 -36 283
-17 81 42 99 138 41 223 -62 91 -153 198 -264 309 -363 363 -817 602 -1320
693 -123 22 -369 32 -532 21 -211 -14 -336 -35 -558 -95 -396 -106 -909 -368
-1310 -669 -728 -546 -1350 -1210 -1856 -1981 -86 -132 -183 -276 -216 -320
l-58 -80 -3 4020 c-1 2211 0 4026 3 4033 3 10 1853 12 9222 10 l9218 -3 3
-4237z m-13998 -977 c36 -6 85 -13 110 -17 25 -3 49 -10 54 -15 6 -5 23 -9 38
-9 16 0 36 -4 46 -9 9 -5 62 -23 117 -41 103 -33 334 -142 441 -208 53 -33
122 -83 161 -117 6 -5 37 -30 69 -55 31 -25 82 -67 112 -95 l54 -50 -263 -7
c-246 -6 -300 -10 -419 -37 -93 -21 -105 -24 -115 -31 -5 -4 -22 -10 -38 -14
-15 -4 -53 -18 -85 -32 -31 -15 -73 -33 -92 -42 -19 -8 -48 -24 -64 -35 -23
-16 -30 -17 -37 -6 -5 8 -9 21 -9 29 0 9 -12 27 -27 41 -16 14 -41 49 -58 77
-16 28 -33 52 -37 52 -4 0 -19 17 -33 38 -45 66 -75 106 -95 130 -11 13 -20
30 -20 37 0 7 -4 15 -8 17 -14 5 -150 184 -169 222 -10 19 -45 67 -77 106 -48
58 -57 73 -45 81 18 12 401 4 489 -10z m5970 0 c36 -6 85 -13 110 -17 25 -3
49 -10 54 -15 6 -5 23 -9 38 -9 16 0 36 -4 46 -9 9 -5 62 -23 117 -41 136 -44
414 -181 500 -247 6 -5 28 -21 50 -38 22 -16 45 -34 52 -40 6 -5 37 -30 69
-55 77 -60 154 -131 154 -141 0 -4 -116 -10 -257 -12 -142 -3 -285 -10 -318
-16 -33 -7 -77 -14 -98 -17 -20 -4 -40 -10 -43 -15 -3 -5 -18 -9 -34 -9 -16 0
-31 -4 -34 -9 -3 -4 -19 -11 -34 -14 -16 -3 -56 -18 -88 -33 -32 -14 -75 -33
-94 -42 -19 -8 -48 -24 -64 -35 -23 -16 -30 -17 -37 -6 -5 8 -9 21 -9 29 0 9
-12 27 -27 41 -16 14 -41 49 -58 77 -16 28 -33 52 -37 52 -4 0 -19 17 -33 38
-45 66 -75 106 -95 130 -11 13 -20 30 -20 37 0 7 -4 15 -8 17 -14 5 -150 184
-169 222 -10 19 -45 67 -77 106 -48 58 -57 73 -45 81 18 12 401 4 489 -10z
m6000 0 c36 -6 85 -13 110 -17 25 -3 49 -10 55 -15 5 -5 22 -9 37 -9 16 0 36
-4 46 -9 9 -5 62 -23 117 -41 136 -44 414 -181 500 -247 6 -5 28 -21 50 -38
22 -16 45 -34 52 -40 6 -5 37 -30 69 -55 77 -60 154 -131 154 -141 0 -4 -116
-10 -257 -12 -142 -3 -285 -10 -318 -16 -33 -7 -77 -14 -98 -17 -20 -4 -40
-10 -43 -15 -3 -5 -18 -9 -34 -9 -16 0 -31 -4 -34 -9 -3 -4 -19 -11 -34 -14
-16 -3 -56 -18 -88 -33 -32 -14 -75 -33 -94 -42 -19 -8 -48 -24 -64 -35 -23
-16 -30 -17 -37 -6 -5 8 -9 21 -9 29 0 9 -12 27 -27 41 -16 14 -41 49 -58 77
-16 28 -33 52 -37 52 -4 0 -19 17 -33 38 -45 66 -75 106 -95 130 -11 13 -20
30 -20 37 0 7 -4 15 -8 17 -14 5 -150 184 -169 222 -10 19 -45 67 -77 106 -48
58 -57 73 -45 81 18 12 401 4 489 -10z m-12583 -17 c-3 -3 -12 -4 -19 -1 -8 3
-5 6 6 6 11 1 17 -2 13 -5z m5970 0 c-3 -3 -12 -4 -19 -1 -8 3 -5 6 6 6 11 1
17 -2 13 -5z m6000 0 c-3 -3 -12 -4 -19 -1 -8 3 -5 6 6 6 11 1 17 -2 13 -5z
m-12312 -1604 c3 -5 1 -10 -4 -10 -6 0 -11 5 -11 10 0 6 2 10 4 10 3 0 8 -4
11 -10z m-348 -142 c-3 -8 -6 -5 -6 6 -1 11 2 17 5 13 3 -3 4 -12 1 -19z
m5970 0 c-3 -8 -6 -5 -6 6 -1 11 2 17 5 13 3 -3 4 -12 1 -19z m6000 0 c-3 -8
-6 -5 -6 6 -1 11 2 17 5 13 3 -3 4 -12 1 -19z m-6020 -140 c-3 -7 -5 -2 -5 12
0 14 2 19 5 13 2 -7 2 -19 0 -25z m6000 0 c-3 -7 -5 -2 -5 12 0 14 2 19 5 13
2 -7 2 -19 0 -25z m-11970 0 c-3 -8 -6 -5 -6 6 -1 11 2 17 5 13 3 -3 4 -12 1
-19z m770 0 c-3 -8 -6 -5 -6 6 -1 11 2 17 5 13 3 -3 4 -12 1 -19z m-470 -100
c-3 -7 -5 -2 -5 12 0 14 2 19 5 13 2 -7 2 -19 0 -25z m5970 -5 c-3 -10 -5 -4
-5 12 0 17 2 24 5 18 2 -7 2 -21 0 -30z m6000 0 c-3 -10 -5 -4 -5 12 0 17 2
24 5 18 2 -7 2 -21 0 -30z m-11520 -60 c-3 -10 -5 -4 -5 12 0 17 2 24 5 18 2
-7 2 -21 0 -30z m5970 5 c-3 -7 -5 -2 -5 12 0 14 2 19 5 13 2 -7 2 -19 0 -25z
m6000 0 c-3 -7 -5 -2 -5 12 0 14 2 19 5 13 2 -7 2 -19 0 -25z m-6770 -60 c-2
-13 -4 -3 -4 22 0 25 2 35 4 23 2 -13 2 -33 0 -45z m6000 0 c-2 -13 -4 -3 -4
22 0 25 2 35 4 23 2 -13 2 -33 0 -45z m-11970 0 c-2 -13 -4 -5 -4 17 -1 22 1
32 4 23 2 -10 2 -28 0 -40z m0 -370 c-2 -13 -4 -5 -4 17 -1 22 1 32 4 23 2
-10 2 -28 0 -40z m5970 0 c-2 -13 -4 -5 -4 17 -1 22 1 32 4 23 2 -10 2 -28 0
-40z m6000 0 c-2 -13 -4 -5 -4 17 -1 22 1 32 4 23 2 -10 2 -28 0 -40z m-11200
-90 c-3 -8 -6 -5 -6 6 -1 11 2 17 5 13 3 -3 4 -12 1 -19z m-450 -20 c-3 -7 -5
-2 -5 12 0 14 2 19 5 13 2 -7 2 -19 0 -25z m5970 0 c-3 -7 -5 -2 -5 12 0 14 2
19 5 13 2 -7 2 -19 0 -25z m6000 0 c-3 -7 -5 -2 -5 12 0 14 2 19 5 13 2 -7 2
-19 0 -25z m-12270 -80 c-3 -8 -6 -5 -6 6 -1 11 2 17 5 13 3 -3 4 -12 1 -19z
m5970 0 c-3 -8 -6 -5 -6 6 -1 11 2 17 5 13 3 -3 4 -12 1 -19z m6000 0 c-3 -8
-6 -5 -6 6 -1 11 2 17 5 13 3 -3 4 -12 1 -19z m-11650 -50 c-3 -8 -6 -5 -6 6
-1 11 2 17 5 13 3 -3 4 -12 1 -19z m1410 -814 c-3 -3 -12 -4 -19 -1 -8 3 -5 6
6 6 11 1 17 -2 13 -5z m5970 0 c-3 -3 -12 -4 -19 -1 -8 3 -5 6 6 6 11 1 17 -2
13 -5z m6000 0 c-3 -3 -12 -4 -19 -1 -8 3 -5 6 6 6 11 1 17 -2 13 -5z"/>
</g>
</svg>
